<svg width="24" height="24" viewBox="0 0 24 24" fill="none" xmlns="http://www.w3.org/2000/svg">
<path fill-rule="evenodd" clip-rule="evenodd" d="M16.6203 19.6846C16.1141 20.1051 15.2933 20.1051 14.7871 19.6846L15.5897 19.0178C14.7871 19.6846 14.7872 19.6846 14.7871 19.6846L14.702 19.6137L14.4647 19.4153C14.2607 19.2442 13.9695 18.9993 13.6203 18.7031C12.9223 18.1112 11.9899 17.3124 11.056 16.4881C10.1253 15.6665 9.17993 14.808 8.46216 14.0999C8.10561 13.7482 7.78665 13.4154 7.55045 13.1333C7.43365 12.9938 7.3186 12.8449 7.22757 12.6984C7.16523 12.5981 7 12.328 7 12C7 11.672 7.16523 11.4019 7.22757 11.3015C7.3186 11.155 7.43365 11.0061 7.55045 10.8666C7.78665 10.5846 8.10561 10.2518 8.46215 9.90003C9.17993 9.19192 10.1253 8.33344 11.056 7.51187C11.9899 6.68754 12.9223 5.88875 13.6203 5.29682C13.9695 5.00063 14.2607 4.75572 14.4647 4.58468L14.702 4.38625L14.7855 4.31667L14.787 4.31548C14.787 4.31541 14.7871 4.31536 15.7037 5.07687L16.6203 5.83839L16.539 5.90608L16.3061 6.1009C16.1051 6.26941 15.8175 6.51129 15.4723 6.80404C14.7814 7.38999 13.8619 8.17775 12.944 8.98804C12.0229 9.80109 11.1164 10.6253 10.4453 11.2874C10.1586 11.5702 9.92815 11.8105 9.76174 12C9.92815 12.1895 10.1586 12.4297 10.4453 12.7125C11.1164 13.3746 12.0229 14.1988 12.944 15.0119C13.8619 15.8222 14.7814 16.6099 15.4723 17.1959C15.8175 17.4887 16.1051 17.7305 16.3061 17.899L16.5391 18.0939L16.6192 18.1606C17.1254 18.5812 17.1266 19.264 16.6203 19.6846ZM9.5314 11.7106C9.51808 11.6828 9.51334 11.6815 9.5314 11.7106C9.53163 11.7109 9.53116 11.7102 9.5314 11.7106ZM16.6203 4.31536C17.1266 4.73593 17.1265 5.41783 16.6203 5.83839L15.7037 5.07687L14.787 4.31548C15.2932 3.89491 16.1141 3.8948 16.6203 4.31536Z" fill="black"/>
</svg>
