<svg width="24" height="24" viewBox="0 0 24 24" fill="none" xmlns="http://www.w3.org/2000/svg">
<path fill-rule="evenodd" clip-rule="evenodd" d="M11.9645 1.30005H12.0354C13.8747 1.30004 15.3027 1.30004 16.443 1.40339C17.6002 1.50827 18.5295 1.72399 19.35 2.19768C20.3685 2.78573 21.2143 3.63152 21.8024 4.65005C22.276 5.4705 22.4918 6.39985 22.5966 7.55705C22.7 8.69733 22.7 10.1254 22.7 11.9647V12.0354C22.7 13.8747 22.7 15.3028 22.5966 16.443C22.4918 17.6002 22.276 18.5296 21.8024 19.35C21.2143 20.3686 20.3685 21.2144 19.35 21.8024C18.5295 22.2761 17.6002 22.4918 16.443 22.5967C15.3027 22.7001 13.8746 22.7001 12.0354 22.7001H11.9646C10.1253 22.7001 8.69727 22.7001 7.55699 22.5967C6.39979 22.4918 5.47044 22.2761 4.64999 21.8024C3.63146 21.2144 2.78567 20.3686 2.19762 19.35C1.72393 18.5296 1.50821 17.6002 1.40333 16.443C1.29998 15.3028 1.29998 13.8747 1.29999 12.0355V11.9646C1.29998 10.1254 1.29998 8.69732 1.40333 7.55705C1.50821 6.39985 1.72393 5.4705 2.19762 4.65005C2.78567 3.63152 3.63146 2.78573 4.64999 2.19768C5.47044 1.72399 6.39979 1.50827 7.55699 1.40339C8.69726 1.30004 10.1253 1.30004 11.9645 1.30005ZM7.68336 2.79767C6.62326 2.89375 5.92184 3.07995 5.34999 3.41011C4.54429 3.87529 3.87523 4.54435 3.41005 5.35005C3.07989 5.9219 2.89369 6.62332 2.79761 7.68342C2.70066 8.75315 2.69999 10.1179 2.69999 12C2.69999 13.8822 2.70066 15.2469 2.79761 16.3167C2.89369 17.3768 3.07989 18.0782 3.41005 18.65C3.87523 19.4558 4.54429 20.1248 5.34999 20.59C5.92184 20.9201 6.62326 21.1063 7.68336 21.2024C8.75309 21.2994 10.1179 21.3 12 21.3C13.8821 21.3 15.2469 21.2994 16.3166 21.2024C17.3767 21.1063 18.0781 20.9201 18.65 20.59C19.4557 20.1248 20.1248 19.4558 20.5899 18.65C20.9201 18.0782 21.1063 17.3768 21.2024 16.3167C21.2993 15.2469 21.3 13.8822 21.3 12C21.3 10.1179 21.2993 8.75315 21.2024 7.68342C21.1063 6.62332 20.9201 5.9219 20.5899 5.35005C20.1248 4.54435 19.4557 3.87529 18.65 3.41011C18.0781 3.07995 17.3767 2.89375 16.3166 2.79767C15.2469 2.70072 13.8821 2.70005 12 2.70005C10.1179 2.70005 8.75309 2.70072 7.68336 2.79767Z" fill="#707070"/>
<path fill-rule="evenodd" clip-rule="evenodd" d="M8.38095 7.945C8.54125 7.75058 8.74276 7.59422 8.97091 7.48724C9.4428 7.26598 9.93197 7.36864 10.3369 7.50646C10.7423 7.64441 11.2412 7.88376 11.8299 8.16622L13.8615 9.14074C13.8842 9.15162 13.907 9.1625 13.9299 9.1734C14.213 9.30835 14.5065 9.44825 14.7277 9.68448C14.7996 9.76125 14.8642 9.84452 14.9207 9.93322C15.0946 10.2062 15.1572 10.5253 15.2176 10.833C15.2225 10.8579 15.2273 10.8827 15.2322 10.9074L15.6716 13.1173C15.7989 13.7578 15.9068 14.3005 15.9397 14.7274C15.9727 15.1539 15.9506 15.6533 15.619 16.0554C15.4587 16.2498 15.2572 16.4062 15.0291 16.5132C14.5572 16.7344 14.068 16.6318 13.6631 16.4939C13.2577 16.356 12.7588 16.1166 12.1701 15.8342L10.1385 14.8597C10.1158 14.8488 10.093 14.8379 10.0701 14.827C9.787 14.692 9.4935 14.5521 9.27227 14.3159C9.20038 14.2391 9.13578 14.1559 9.07928 14.0672C8.9054 13.7942 8.8428 13.4751 8.78241 13.1674C8.77753 13.1425 8.77266 13.1177 8.76775 13.093L8.33721 10.9272C8.33427 10.9124 8.33135 10.8977 8.32844 10.8831C8.20109 10.2426 8.09318 9.69986 8.06024 9.27296C8.02733 8.84647 8.0494 8.34714 8.38095 7.945ZM9.46737 8.8283C9.46012 8.84899 9.43832 8.93496 9.45609 9.16526C9.48178 9.49824 9.57186 9.95761 9.71034 10.6542L10.1409 12.8201C10.228 13.2582 10.2464 13.2936 10.2601 13.3151C10.2701 13.3307 10.2815 13.3454 10.2941 13.3589C10.3115 13.3775 10.3412 13.4041 10.744 13.5974L12.735 14.5524C13.3754 14.8596 13.798 15.061 14.1141 15.1686C14.3328 15.243 14.4215 15.2432 14.4433 15.2414C14.4772 15.2241 14.5075 15.2006 14.5326 15.1721C14.5399 15.1514 14.5617 15.0654 14.5439 14.8351C14.5182 14.5022 14.4281 14.0428 14.2896 13.3462L13.8591 11.1803C13.772 10.7422 13.7536 10.7068 13.7399 10.6853C13.7299 10.6697 13.7185 10.655 13.7058 10.6414C13.6885 10.6229 13.6588 10.5962 13.256 10.403L11.265 9.44796C10.6246 9.14078 10.202 8.93941 9.88585 8.83181C9.66718 8.75738 9.57849 8.75715 9.55665 8.75902C9.52277 8.77625 9.49247 8.79976 9.46737 8.8283Z" fill="#707070"/>
</svg>
