<svg width="22" height="20" viewBox="0 0 22 20" fill="none" xmlns="http://www.w3.org/2000/svg">
<path fill-rule="evenodd" clip-rule="evenodd" d="M11.6062 0.522125C11.941 0.810453 11.941 1.27793 11.6062 1.56625L1.81858 9.99581C1.4838 10.2841 0.94101 10.2841 0.606228 9.99581C0.271447 9.70748 0.271447 9.24001 0.606228 8.95168L10.3939 0.522125C10.7287 0.233796 11.2714 0.233796 11.6062 0.522125Z" fill="white"/>
<path fill-rule="evenodd" clip-rule="evenodd" d="M10.3938 0.522125C10.059 0.810453 10.059 1.27793 10.3938 1.56625L20.1814 9.99581C20.5162 10.2841 21.059 10.2841 21.3938 9.99581C21.7286 9.70748 21.7286 9.24001 21.3938 8.95168L11.6061 0.522124C11.2713 0.233796 10.7286 0.233796 10.3938 0.522125Z" fill="white"/>
<path fill-rule="evenodd" clip-rule="evenodd" d="M11.8015 20H10.2003C7.2003 20 5.70032 20 4.64886 19.2361C4.30928 18.9893 4.01065 18.6907 3.76393 18.3511C3 17.2997 3 15.7998 3 12.8V11.427C3 9.93268 3 9.18552 3.24996 8.51205C3.33245 8.28978 3.43455 8.07529 3.55503 7.8711C3.9201 7.25242 4.49998 6.78127 5.65973 5.83897L11 1.5L16.3403 5.83897C17.5 6.78127 18.0799 7.25242 18.445 7.8711C18.5655 8.07529 18.6675 8.28978 18.75 8.51205C19 9.18552 19 9.93268 19 11.427V12.8C19 15.7998 19 17.2997 18.2361 18.3511C17.9893 18.6907 17.6907 18.9893 17.3511 19.2361C16.2997 20 14.8003 20 11.8015 20ZM8.7 15.4421C8.3134 15.4421 8 15.7555 8 16.1421C8 16.5287 8.3134 16.8421 8.7 16.8421H12.8C13.1866 16.8421 13.5 16.5287 13.5 16.1421C13.5 15.7555 13.1866 15.4421 12.8 15.4421H8.7Z" fill="white"/>
</svg>
