<svg width="40" height="40" viewBox="0 0 40 40" fill="none" xmlns="http://www.w3.org/2000/svg">
<path d="M21.8667 16.4C23.8074 17.8556 24.7778 18.5834 24.9571 19.539C25.0143 19.8437 25.0143 20.1563 24.9571 20.461C24.7778 21.4166 23.8074 22.1444 21.8667 23.6L20.5333 24.6C17.7676 26.6743 16.3848 27.7114 15.2337 27.427C14.8739 27.3382 14.5385 27.1704 14.2515 26.9359C13.3333 26.1857 13.3333 24.4571 13.3333 21L13.3333 19C13.3333 15.5429 13.3333 13.8143 14.2515 13.0641C14.5385 12.8296 14.8739 12.6619 15.2337 12.573C16.3848 12.2886 17.7676 13.3257 20.5333 15.4L21.8667 16.4Z" fill="#222628"/>
<path fill-rule="evenodd" clip-rule="evenodd" d="M25.0001 10.5C25.6444 10.5 26.1667 11.0223 26.1667 11.6667V28.3333C26.1667 28.9777 25.6444 29.5 25.0001 29.5C24.3558 29.5 23.8334 28.9777 23.8334 28.3333V11.6667C23.8334 11.0223 24.3558 10.5 25.0001 10.5Z" fill="#222628"/>
</svg>
