<svg width="40" height="40" viewBox="0 0 40 40" fill="none" xmlns="http://www.w3.org/2000/svg">
<path d="M17.6333 23.6001C15.6926 22.1445 14.7222 21.4167 14.5429 20.4611C14.4857 20.1564 14.4857 19.8438 14.5429 19.5391C14.7222 18.5835 15.6926 17.8557 17.6333 16.4001L18.9667 15.4001C21.7324 13.3258 23.1152 12.2887 24.2663 12.5731C24.6261 12.662 24.9615 12.8297 25.2485 13.0642C26.1667 13.8144 26.1667 15.543 26.1667 19.0001L26.1667 21.0001C26.1667 24.4572 26.1667 26.1858 25.2485 26.936C24.9615 27.1705 24.6261 27.3382 24.2663 27.4271C23.1152 27.7115 21.7324 26.6744 18.9667 24.6001L17.6333 23.6001Z" fill="#222628"/>
<path fill-rule="evenodd" clip-rule="evenodd" d="M14.4999 29.5001C13.8556 29.5001 13.3333 28.9778 13.3333 28.3335L13.3333 11.6668C13.3333 11.0225 13.8556 10.5001 14.4999 10.5001C15.1442 10.5001 15.6666 11.0225 15.6666 11.6668L15.6666 28.3335C15.6666 28.9778 15.1443 29.5001 14.4999 29.5001Z" fill="#222628"/>
</svg>
